#!OML:ASF H:\BabyWalks\Project 1\Capture day 1\Session 1\baby.ASF
:FULLY-SPECIFIED
:DEGREES
799
root 33.9328 17.1453 14.5046 -27.1161 73.6163 -29.6894
lowerback 15.4308 3.09744 0.644271
upperback 4.95293 4.32482 -1.35816
thorax -3.21941 2.23852 -2.55971
lowerneck 4.78955 3.48661 7.98003
upperneck -4.22746 5.01823 -3.86777
head -1.87906 2.4808 -2.79599
rclavicle 1.98785e-015 -1.11319e-014
rhumerus -44.8883 10.0969 -86.6864
rradius 57.1491
rwrist 0.254608
rhand -3.97279 -16.8447
rfingers 7.12502
rthumb 21.7801 -45.6392
lclavicle 1.98785e-015 -1.11319e-014
lhumerus -35.3472 -6.76399 72.3971
lradius 59.4422
lwrist 5.41408
lhand -4.89069 8.01738
lfingers 7.12502
lthumb 20.8984 36.9117
rfemur 22.4699 17.1912 31.0384
rtibia -6.36111e-015
rfoot -10.1534 -0.456668
rtoes -6.97123
lfemur -27.9893 -0.159786 -7.12383
ltibia 39.7029
lfoot -15.7161 -8.57385
ltoes -0.643988
800
root 33.9446 17.1499 14.4932 -26.9834 73.5684 -29.7608
lowerback 15.4905 3.06555 0.64215
upperback 4.98105 4.28473 -1.32762
thorax -3.22606 2.21894 -2.52244
lowerneck 4.77837 3.50673 7.98582
upperneck -4.34497 5.04087 -3.94084
head -1.91258 2.49196 -2.82485
rclavicle 9.14409e-015 1.27222e-014
rhumerus -44.7544 9.88731 -86.596
rradius 57.348
rwrist 0.219665
rhand -4.40062 -16.8728
rfingers 7.12502
rthumb 21.3692 -45.7145
lclavicle 9.14409e-015 1.27222e-014
lhumerus -35.2254 -6.8765 72.3443
lradius 59.6955
lwrist 5.4629
lhand -4.88674 7.98099
lfingers 7.12502
lthumb 20.9022 36.8749
rfemur 22.2694 17.2397 30.9884
rtibia 2.22639e-014
rfoot -10.1058 -0.552805
rtoes -7.11484
lfemur -28.1769 -0.132864 -7.12231
ltibia 39.7243
lfoot -15.7342 -8.52908
ltoes -0.58633
801
root 33.9556 17.1543 14.4822 -26.7897 73.5288 -29.7591
lowerback 15.552 3.03886 0.624692
upperback 5.00967 4.24919 -1.29928
thorax -3.23373 2.2016 -2.47971
lowerneck 4.77035 3.52129 8.00116
upperneck -4.46041 5.05649 -4.02235
head -1.94613 2.49978 -2.85832
rclavicle 4.69132e-014 -1.43125e-014
rhumerus -44.6326 9.68975 -86.5102
rradius 57.5592
rwrist 0.172857
rhand -4.90224 -16.8835
rfingers 7.12502
rthumb 20.8873 -45.779
lclavicle 4.69132e-014 -1.43125e-014
lhumerus -35.1116 -6.99461 72.2984
lradius 59.9249
lwrist 5.52914
lhand -4.85167 7.97611
lfingers 7.12502
lthumb 20.9359 36.8663
rfemur 22.0782 17.2891 30.9158
rtibia -2.54444e-014
rfoot -10.0615 -0.632001
rtoes -7.26371
lfemur -28.3496 -0.108302 -7.14368
ltibia 39.7338
lfoot -15.7442 -8.48374
ltoes -0.524809
802
root 33.9658 17.1588 14.4713 -26.532 73.4951 -29.6831
lowerback 15.6115 3.01785 0.597977
upperback 5.03959 4.21964 -1.27563
thorax -3.23899 2.18732 -2.43752
lowerneck 4.76188 3.53105 8.02332
upperneck -4.57052 5.06585 -4.10782
head -1.97807 2.50459 -2.89421
rclavicle -2.50469e-014 -1.27222e-014
rhumerus -44.5195 9.50166 -86.4282
rradius 57.7842
rwrist 0.113518
rhand -5.40694 -16.8958
rfingers 7.12502
rthumb 20.4024 -45.844
lclavicle -2.50469e-014 -1.27222e-014
lhumerus -35.0031 -7.11878 72.2591
lradius 60.1265
lwrist 5.61476
lhand -4.80632 7.99193
lfingers 7.12502
lthumb 20.9795 36.8773
rfemur 21.8931 17.3421 30.8191
rtibia 1.90833e-014
rfoot -10.0171 -0.691267
rtoes -7.42289
lfemur -28.508 -0.085046 -7.18774
ltibia 39.7299
lfoot -15.747 -8.43462
ltoes -0.470368
803
root 33.9753 17.1631 14.4607 -26.2302 73.4629 -29.5535
lowerback 15.6707 2.99995 0.566226
upperback 5.06895 4.19329 -1.25452
thorax -3.24459 2.17462 -2.39568
lowerneck 4.75371 3.53833 8.05656
upperneck -4.67364 5.07217 -4.20147
head -2.00762 2.50808 -2.93476
rclavicle 4.17448e-014 -3.02153e-014
rhumerus -44.4164 9.33626 -86.3558
rradius 58.0183
rwrist 0.0526809
rhand -5.95219 -16.8839
rfingers 7.12502
rthumb 19.8783 -45.8872
lclavicle 4.17448e-014 -3.02153e-014
lhumerus -34.9055 -7.23951 72.2234
lradius 60.2993
lwrist 5.71242
lhand -4.75636 8.02054
lfingers 7.12502
lthumb 21.0275 36.9006
rfemur 21.7141 17.3998 30.7053
rtibia -2.54444e-014
rfoot -9.97174 -0.726396
rtoes -7.59538
lfemur -28.6541 -0.0619087 -7.2462
ltibia 39.7165
lfoot -15.7431 -8.38216
ltoes -0.429937
804
root 33.9842 17.1674 14.4501 -25.8825 73.4347 -29.3675
lowerback 15.7276 2.98517 0.533324
upperback 5.09914 4.17076 -1.23761
thorax -3.24765 2.16389 -2.35805
lowerneck 4.74791 3.54006 8.09637
upperneck -4.77221 5.07147 -4.29802
head -2.03643 2.50814 -2.97744
rclavicle -5.48646e-014 1.11319e-014
rhumerus -44.3232 9.19107 -86.2914
rradius 58.2617
rwrist -0.0168299
rhand -6.49331 -16.8626
rfingers 7.12502
rthumb 19.3581 -45.9191
lclavicle -5.48646e-014 1.11319e-014
lhumerus -34.8106 -7.35693 72.1936
lradius 60.4308
lwrist 5.8161
lhand -4.71474 8.05296
lfingers 7.12502
lthumb 21.0675 36.9285
rfemur 21.542 17.4605 30.571
rtibia 4.45278e-014
rfoot -9.9258 -0.734713
rtoes -7.77639
lfemur -28.7874 -0.0392091 -7.32303
ltibia 39.6961
lfoot -15.7359 -8.32596
ltoes -0.389709
805
root 33.9925 17.1716 14.4394 -25.506 73.405 -29.1425
lowerback 15.7817 2.97138 0.506236
upperback 5.13322 4.15045 -1.22493
thorax -3.24417 2.15451 -2.32811
lowerneck 4.72648 3.54218 8.15222
upperneck -4.85641 5.07071 -4.40298
head -2.05717 2.50828 -3.02511
rclavicle 3.81667e-014 -1.90833e-014
rhumerus -44.2298 9.0741 -86.2405
rradius 58.5064
rwrist -0.0938779
rhand -7.02848 -16.8295
rfingers 7.12502
rthumb 18.8434 -45.9368
lclavicle 3.81667e-014 -1.90833e-014
lhumerus -34.7121 -7.46031 72.1628
lradius 60.5206
lwrist 5.90611
lhand -4.67473 8.07878
lfingers 7.12502
lthumb 21.1059 36.9501
rfemur 21.3765 17.5265 30.4229
rtibia 6.99722e-014
rfoot -9.87763 -0.716284
rtoes -7.96363
lfemur -28.9093 -0.0159223 -7.41001
ltibia 39.6723
lfoot -15.7276 -8.26528
ltoes -0.369694
806
root 34.0001 17.1755 14.4285 -25.1239 73.3722 -28.9034
lowerback 15.8327 2.95867 0.493484
upperback 5.16899 4.13382 -1.21282
thorax -3.23604 2.1471 -2.30714
lowerneck 4.69781 3.54224 8.21803
upperneck -4.92835 5.06692 -4.51424
head -2.07243 2.50705 -3.07625
rclavicle 2.26615e-014 4.77083e-015
rhumerus -44.1401 8.9802 -86.1947
rradius 58.7573
rwrist -0.175873
rhand -7.51984 -16.7954
rfingers 7.12502
rthumb 18.3708 -45.9479
lclavicle 2.26615e-014 4.77083e-015
lhumerus -34.6174 -7.55106 72.1362
lradius 60.5772
lwrist 5.9716
lhand -4.62317 8.11582
lfingers 7.12502
lthumb 21.1554 36.9816
rfemur 21.216 17.5965 30.2676
rtibia -2.8625e-014
rfoot -9.82647 -0.671082
rtoes -8.14718
lfemur -29.0219 0.0084729 -7.50021
ltibia 39.646
lfoot -15.7167 -8.2009
ltoes -0.352115
807
root 34.0068 17.1792 14.4173 -24.7535 73.334 -28.6681
lowerback 15.8873 2.94578 0.497267
upperback 5.20585 4.11962 -1.19859
thorax -3.22756 2.14097 -2.29383
lowerneck 4.65972 3.5421 8.29686
upperneck -4.98889 5.0625 -4.63416
head -2.08182 2.50562 -3.13224
rclavicle -3.97569e-014 2.38542e-014
rhumerus -44.0507 8.9157 -86.1556
rradius 59.0011
rwrist -0.240575
rhand -7.97774 -16.7454
rfingers 7.12502
rthumb 17.9303 -45.9389
lclavicle -3.97569e-014 2.38542e-014
lhumerus -34.5234 -7.62281 72.1155
lradius 60.5942
lwrist 6.01457
lhand -4.57377 8.14582
lfingers 7.12502
lthumb 21.2029 37.0062
rfemur 21.0588 17.67 30.1113
rtibia 3.18055e-015
rfoot -9.77155 -0.599897
rtoes -8.32752
lfemur -29.129 0.0347292 -7.587
ltibia 39.6197
lfoot -15.7025 -8.1337
ltoes -0.333548
808
root 34.0127 17.1828 14.4059 -24.374 73.2944 -28.4109
lowerback 15.9487 2.93223 0.507633
upperback 5.24408 4.10571 -1.18393
thorax -3.22077 2.13505 -2.28416
lowerneck 4.60418 3.54548 8.39321
upperneck -5.03046 5.06195 -4.76578
head -2.08083 2.50627 -3.19457
rclavicle -1.03368e-014 2.22639e-014
rhumerus -43.9619 8.88485 -86.1233
rradius 59.2353
rwrist -0.291433
rhand -8.39283 -16.6832
rfingers 7.12502
rthumb 17.5308 -45.9128
lclavicle -1.03368e-014 2.22639e-014
lhumerus -34.4354 -7.6738 72.1008
lradius 60.5732
lwrist 6.03612
lhand -4.5295 8.16559
lfingers 7.12502
lthumb 21.2454 37.0212
rfemur 20.9107 17.7461 29.9462
rtibia -3.18055e-015
rfoot -9.71618 -0.505293
rtoes -8.48741
lfemur -29.2238 0.0584737 -7.68028
ltibia 39.5926
lfoot -15.688 -8.05986
ltoes -0.32616
809
root 34.0176 17.1861 14.3943 -24.0286 73.2502 -28.1779
lowerback 16.019 2.91703 0.534496
upperback 5.28235 4.09251 -1.16211
thorax -3.21803 2.12947 -2.27693
lowerneck 4.53853 3.55124 8.5046
upperneck -5.05982 5.06399 -4.91105
head -2.07315 2.50839 -3.26392
rclavicle 4.17448e-014 -3.18055e-014
rhumerus -43.8742 8.88364 -86.0896
rradius 59.4679
rwrist -0.34426
rhand -8.73035 -16.6297
rfingers 7.12502
rthumb 17.206 -45.8879
lclavicle 4.17448e-014 -3.18055e-014
lhumerus -34.3562 -7.70354 72.0963
lradius 60.521
lwrist 6.03322
lhand -4.47753 8.19712
lfingers 7.12502
lthumb 21.2953 37.0471
rfemur 20.7692 17.8217 29.7876
rtibia -3.18055e-015
rfoot -9.65753 -0.391188
rtoes -8.64271
lfemur -29.3109 0.0828743 -7.76547
ltibia 39.5652
lfoot -15.6699 -7.98525
ltoes -0.322439
